inDegrees=yes
name=ik_S42_A09_T01
DataType=double
version=3
OpenSimVersion=4.3-2021-08-27-4bc7ad9
endheader
time	pelvis_tilt	pelvis_list	pelvis_rotation	pelvis_tx	pelvis_ty	pelvis_tz	hip_flexion_r	hip_adduction_r	hip_rotation_r	knee_angle_r	knee_angle_r_beta	ankle_angle_r	subtalar_angle_r	mtp_angle_r	hip_flexion_l	hip_adduction_l	hip_rotation_l	knee_angle_l	knee_angle_l_beta	ankle_angle_l	subtalar_angle_l	mtp_angle_l	lumbar_extension	lumbar_bending	lumbar_rotation	arm_flex_r	arm_add_r	arm_rot_r	elbow_flex_r	pro_sup_r	wrist_flex_r	wrist_dev_r	arm_flex_l	arm_add_l	arm_rot_l	elbow_flex_l	pro_sup_l	wrist_flex_l	wrist_dev_l
15.79999999999975	-11.29875209451945	-2.937382281570699	26.91487333455702	0	0.9399999999999999	0	38.81804358412059	-11.33653518160589	-10.45022838241108	50.44012486551015	0.8803462540202142	0	0	0	38.81804358412059	-11.33653518160589	-10.45022838241108	50.44012486551015	0.8803462540202142	0	0	0	-9.876428241752553	-2.974401981531942	-0.08309133984833683	84.35405353104797	-14.15069299698139	22.68297675284276	70.11140125234529	83.9175298148196	0	0	66.53547278658236	-6.282953866689196	11.71662294172593	63.95308934501	71.51947874025213	0	0
15.81999999999975	-11.31152372185105	-2.905343532178895	26.8810014771114	0	0.9399999999999999	0	38.8206749209447	-11.33456187933683	-10.44980222936818	50.44142356238611	0.880368920556685	0	0	0	38.8206749209447	-11.33456187933683	-10.44980222936818	50.44142356238611	0.880368920556685	0	0	0	-9.874208582894536	-2.941845709788023	-0.06193570926511793	84.44824663781603	-13.89811388735514	21.5724281906551	70.03301892298363	84.61077331868032	0	0	66.52207906811009	-6.251623568523221	11.65897094027711	63.93706337274851	71.61197248832661	0	0
15.83999999999975	-11.31494937579647	-2.867170917677285	26.88185127010726	0	0.9399999999999999	0	38.8230422233554	-11.33279297024962	-10.44941968793525	50.44259511983881	0.8803893680916108	0	0	0	38.8230422233554	-11.33279297024962	-10.44941968793525	50.44259511983881	0.8803893680916108	0	0	0	-9.861554701465646	-2.904437826908589	-0.06673106326496597	84.89742631003992	-14.0529520268689	20.48309896954964	70.32244395113638	84.70073713360472	0	0	66.56401406342002	-6.332051460196078	11.08933031313693	63.83114201136543	71.91244498088665	0	0
15.85999999999975	-11.29519265044727	-2.862389738541706	26.80103158414562	0	0.9399999999999999	0	38.88538934298447	-11.30137681068545	-10.44151767513161	50.48323206054343	0.8810986165048442	0	0	0	38.88538934298447	-11.30137681068545	-10.44151767513161	50.48323206054343	0.8810986165048442	0	0	0	-9.84826898356031	-2.891890811749118	0.05251694601240055	85.68481531373101	-14.53098247765217	18.62820007053607	71.14958603181276	83.64127203080756	0	0	66.54218151020518	-6.277764857749032	11.06875497805561	63.68962658644205	72.25041217327259	0	0
15.87999999999975	-11.28764552318594	-2.861288506629422	26.8845430269056	0	0.9399999999999999	0	38.88710314360565	-11.30012032306001	-10.44124373422297	50.48408514447026	0.8811135056281633	0	0	0	38.88710314360565	-11.30012032306001	-10.44124373422297	50.48408514447026	0.8811135056281633	0	0	0	-9.844304632332928	-2.882992218314394	-0.001422821462231239	85.94152676599822	-14.76770286793739	17.85726626431427	71.35199917346276	83.56167111139204	0	0	66.73933334576925	-6.447401528673083	10.44441387150879	63.52126406355886	72.60796185811211	0	0
15.89999999999975	-11.26179744917065	-2.852808849402421	26.89357472753839	0	0.9399999999999999	0	38.89018220030405	-11.29784668072711	-10.44074914337038	50.48560584563095	0.8811400468703562	0	0	0	38.89018220030405	-11.29784668072711	-10.44074914337038	50.48560584563095	0.8811400468703562	0	0	0	-9.814200961892706	-2.902848422385452	0.08212589269702733	86.06098681620821	-15.19873703830333	17.32204622904293	71.54998303874862	83.36427781354386	0	0	66.98040464658504	-6.330872821769275	10.32721519498147	63.11152299610637	72.81142548097723	0	0
15.91999999999975	-11.24983559189187	-2.852871254401039	26.836220234468	0	0.9399999999999999	0	38.89174666595983	-11.29669498251412	-10.44049831291614	50.4863802386275	0.8811535625778503	0	0	0	38.89174666595983	-11.29669498251412	-10.44049831291614	50.4863802386275	0.8811535625778503	0	0	0	-9.800631174957029	-2.922632469792375	0.1585248002564143	86.26404297117972	-15.72339144218243	16.84123399150062	71.63932318434543	83.13185018426439	0	0	67.05587343294486	-6.36202506543575	10.39919884164626	63.04088401182401	73.08179571425126	0	0
15.93999999999975	-11.21007301088496	-2.837313530350827	26.79322719039482	0	0.9399999999999999	0	38.8932942971318	-11.29555524273492	-10.44025009282555	50.48714561618705	0.8811669209362853	0	0	0	38.8932942971318	-11.29555524273492	-10.44025009282555	50.48714561618705	0.8811669209362853	0	0	0	-9.754133405929425	-2.944994994227053	0.2544405545784539	86.31028965692796	-16.35148969382143	16.40516660383781	71.647713407457	82.8815087509342	0	0	67.01835852133469	-6.351890968300211	10.52222660390741	62.99199497894704	73.12198666852726	0	0
15.95999999999975	-11.18307340895376	-2.829549035455812	26.75791831229938	0	0.9399999999999999	0	38.8960619041335	-11.29351822272993	-10.43980630255841	50.4885140384297	0.8811908044099771	0	0	0	38.8960619041335	-11.29351822272993	-10.43980630255841	50.4885140384297	0.8811908044099771	0	0	0	-9.725232916318493	-2.95733855228151	0.2975584550360204	86.27937306854182	-16.45012362877672	16.08740933403127	71.13022470420042	83.12752978639422	0	0	67.00145066931283	-6.388263527014554	10.52659260794241	63.02181701225181	73.10978524746167	0	0
15.97999999999975	-11.15572839976274	-2.804595130606125	26.65051675169514	0	0.9399999999999999	0	38.8974511172406	-11.29250021544282	-10.4395841527659	50.48920335244404	0.8812028352091076	0	0	0	38.8974511172406	-11.29250021544282	-10.4395841527659	50.48920335244404	0.8812028352091076	0	0	0	-9.685414807185696	-2.966459646352095	0.399491625893619	86.24505414405219	-17.10182977385252	15.53039716904245	70.79161024886382	83.23005589714747	0	0	66.98407393707443	-6.413475683834299	10.34365741745836	63.02679053446852	73.17820598908555	0	0
15.99999999999975	-11.12401637868551	-2.786288701102797	26.55234384815244	0	0.9399999999999999	0	38.90089431906897	-11.28999704775089	-10.43903636174718	50.49092390999367	0.8812328646033186	0	0	0	38.90089431906897	-11.28999704775089	-10.43903636174718	50.49092390999367	0.8812328646033186	0	0	0	-9.647859517485161	-2.968787142932177	0.4260958830714526	86.21815338656607	-17.04921871520516	15.25111628384284	69.68052108563744	83.96313852078451	0	0	66.9989189926243	-6.536576060295417	9.941752409369427	62.91089991681218	73.37033593205035	0	0
16.01999999999975	-11.12238730045183	-2.783768025478575	26.2958569470593	0	0.9399999999999999	0	38.90293157828037	-11.28850333747288	-10.43871034943795	50.49193247322819	0.8812504673524755	0	0	0	38.90293157828037	-11.28850333747288	-10.43871034943795	50.49193247322819	0.8812504673524755	0	0	0	-9.634969155251921	-3.015489979903973	0.6845998482370576	85.9681501247281	-18.5739310437937	13.56837551249244	69.61092162323618	83.86621822383283	0	0	67.09829548898108	-6.537840181527439	9.502189181126955	62.84142905597617	73.57481592564601	0	0
